<svg width="32" height="32" viewBox="0 0 32 32" fill="none" xmlns="http://www.w3.org/2000/svg">
<rect width="32" height="32" rx="4" fill="#2A1D39"/>
<path d="M15.918 24.2344C15.293 24.2344 14.6133 24.1797 13.8789 24.0703C13.1445 23.9766 12.3398 23.8281 11.4648 23.625C11.3867 23.2812 11.3008 22.8516 11.207 22.3359C11.1289 21.8203 11.0586 21.3203 10.9961 20.8359C10.9492 20.3359 10.9258 19.9688 10.9258 19.7344C10.9727 19.5781 11.1133 19.5 11.3477 19.5C11.832 19.5 12.082 19.5469 12.0977 19.6406C12.1914 20.1094 12.4023 20.6016 12.7305 21.1172C13.0586 21.6172 13.457 22.0391 13.9258 22.3828C14.4102 22.7266 14.918 22.8984 15.4492 22.8984C16.9961 22.8984 17.7695 22.0469 17.7695 20.3438C17.7695 19.8906 17.5898 19.4766 17.2305 19.1016C16.8867 18.7266 16.4805 18.3906 16.0117 18.0938C15.5586 17.7969 15.168 17.5391 14.8398 17.3203L14.1367 16.8516C13.6055 16.4922 13.1055 16.125 12.6367 15.75C12.168 15.3594 11.7852 14.9141 11.4883 14.4141C11.207 13.8984 11.0664 13.2734 11.0664 12.5391C11.0664 11.7422 11.3086 11.0234 11.793 10.3828C12.2773 9.74219 12.9023 9.23438 13.668 8.85938C14.4336 8.48438 15.2305 8.29688 16.0586 8.29688C16.3867 8.29688 16.7227 8.32031 17.0664 8.36719C17.4258 8.41406 17.7305 8.46094 17.9805 8.50781C18.4492 8.60156 18.8477 8.69531 19.1758 8.78906C19.5195 8.86719 19.793 8.92188 19.9961 8.95312C20.0742 9.71875 20.1367 10.4219 20.1836 11.0625C20.2305 11.7031 20.2539 12.2969 20.2539 12.8438C20.1914 13 20.0742 13.0781 19.9023 13.0781C19.4336 13.0781 19.1914 13.0234 19.1758 12.9141C19.1133 12.3828 18.9414 11.8672 18.6602 11.3672C18.3789 10.8672 18.0195 10.4531 17.582 10.125C17.1445 9.78125 16.6445 9.60938 16.082 9.60938C15.5508 9.60938 15.0977 9.77344 14.7227 10.1016C14.3633 10.4297 14.1836 10.9531 14.1836 11.6719C14.1836 12.3125 14.4648 12.875 15.0273 13.3594C15.6055 13.8438 16.3477 14.375 17.2539 14.9531L18.4492 15.7031C18.8867 15.9688 19.3008 16.2656 19.6914 16.5938C20.082 16.9062 20.4023 17.3203 20.6523 17.8359C20.9023 18.3359 21.0273 19.0234 21.0273 19.8984C21.0273 20.7266 20.7852 21.4688 20.3008 22.125C19.832 22.7812 19.207 23.2969 18.4258 23.6719C17.6602 24.0469 16.8242 24.2344 15.918 24.2344Z" fill="#F6F6F6"/>
</svg>
